<svg xmlns="http://www.w3.org/2000/svg" viewBox="0 0 64 64"><title>lamp, bulb, love, romance, heart</title><g id="Lamp"><path d="M32,7a1,1,0,0,0,1-1V1a1,1,0,0,0-2,0V6A1,1,0,0,0,32,7Z"/><path d="M19.134,9.716a1,1,0,1,0,1.732-1l-2.5-4.33a1,1,0,1,0-1.732,1Z"/><path d="M6.385,16.366l4.33,2.5a1,1,0,1,0,1-1.732l-4.33-2.5a1,1,0,0,0-1,1.732Z"/><path d="M9,30a1,1,0,0,0-1-1H3a1,1,0,0,0,0,2H8A1,1,0,0,0,9,30Z"/><path d="M10.715,41.134l-4.33,2.5a1,1,0,1,0,1,1.732l4.33-2.5a1,1,0,1,0-1-1.732Z"/><path d="M43.5,10.082a1,1,0,0,0,1.366-.366l2.5-4.33a1,1,0,1,0-1.732-1l-2.5,4.33A1,1,0,0,0,43.5,10.082Z"/><path d="M52.785,19a.992.992,0,0,0,.5-.134l4.33-2.5a1,1,0,0,0-1-1.732l-4.33,2.5a1,1,0,0,0,.5,1.866Z"/><path d="M61,29H56a1,1,0,0,0,0,2h5a1,1,0,0,0,0-2Z"/><path d="M57.614,43.634l-4.33-2.5a1,1,0,1,0-1,1.732l4.33,2.5a1,1,0,0,0,1-1.732Z"/><path d="M32,64a8,8,0,0,0,7.41-5H24.59A8,8,0,0,0,32,64Z"/><path d="M46.45,14.762A20.892,20.892,0,0,0,30.861,9.029,21.2,21.2,0,0,0,11,30.185a20.919,20.919,0,0,0,7.852,16.179A3.016,3.016,0,0,1,20,48.715V51H31V41.447l-8.56-7.653A7.432,7.432,0,0,1,20.7,25.143a7.143,7.143,0,0,1,4.725-3.929,6.982,6.982,0,0,1,5.9,1.177l.676.5.676-.5a6.988,6.988,0,0,1,5.894-1.178,7.152,7.152,0,0,1,4.728,3.93A7.437,7.437,0,0,1,41.56,33.8L33,41.447V51H44V48.718a3.046,3.046,0,0,1,1.166-2.368A20.989,20.989,0,0,0,46.45,14.762Z"/><path d="M41.487,25.992a5.159,5.159,0,0,0-3.405-2.84A5.005,5.005,0,0,0,33.867,24L32.6,24.94a1,1,0,0,1-1.19,0L30.133,24a4.992,4.992,0,0,0-4.216-.845,5.153,5.153,0,0,0-3.4,2.839,5.422,5.422,0,0,0,1.26,6.311L32,39.658,40.227,32.3A5.423,5.423,0,0,0,41.487,25.992Z"/><path d="M20,56a1,1,0,0,0,1,1H43a1,1,0,0,0,1-1V53H20Z"/></g></svg>