<?xml version="1.0" encoding="UTF-8"?><svg xmlns="http://www.w3.org/2000/svg" data-name="Illustration" viewBox="0 0 1000 1000"><path fill="none" stroke="#2e1f40" stroke-linecap="round" stroke-linejoin="round" stroke-width="27.202" d="m598.833 448.96 35.789 51.764c3.305 4.781 6.691 9.75 7.753 15.464 2.06 11.079-5.438 22.165-15.161 27.861-9.724 5.696-21.265 7.179-32.45 8.546m-61.181 47.095c40.981 12.919 86.018 12.947 126.989-.012M319.515 370.522c-22.875-2.745-47.201 9.261-58.277 29.603-12.167 22.345-7.21 52.66 11.44 69.965s49.25 19.986 70.624 6.185"/><path fill="none" stroke="#2e1f40" stroke-linecap="round" stroke-linejoin="round" stroke-width="27.202" d="M547.985 708.766c213.23-2.61 182.683-255.91 182.683-255.91"/><path fill="#2e1f40" stroke="#2e1f40" stroke-linecap="round" stroke-linejoin="round" stroke-width="27.202" d="M805.997 174.863c-22.687-25.753-62.877-34.169-93.99-19.683-17.873-49.187-59.344-94.644-107.501-115.129s-104.802-20.039-152.631 1.2c-27.211 12.083-53.358 33.529-58.059 62.929-27.817 3.052-55.056-7.343-82.564-2.202-20.479 3.827-38.833 17.697-48.105 36.353s-9.246 41.662.069 60.296c-44.379 10.031-80.047 52.745-84.129 98.06-4.081 45.315 23.709 91.729 65.581 109.529l70.382-44.04c8.306 11.432 20.001 20.379 33.533 24.536 28.701 8.815 84.766-6.976 99.368-33.21l7.969-2.85c37.588-12.046 77.968 15.574 116.824 8.632 24.809-4.432 44.737-22.113 65.514-36.376s41.672-22.895 65.921-16.033c33.024 9.345 91.198-7.252 109.492-36.29s15.013-69.969-7.674-95.722"/><path fill="#ff4279" d="M607.496 463.886c-24.571 25.131-61.205 38.635-95.923 33.164s-66.166-30.695-76.944-64.149.931-73.517 29.334-94.218c22.698-16.543 58.155-24.676 94.251-17.596 32.189 6.313 65.341 3.353 96.538-6.781 16.34-5.308 33.822-8.029 47.978-3.13 22.378 7.743 43.338 21.231 56.67 40.801 26.293 38.596 14.986 96.778-22.15 125.094-37.137 28.316-93.967 16.819-129.753-13.185Z"/><path fill="none" stroke="#2e1f40" stroke-linecap="round" stroke-linejoin="round" stroke-width="20.402" d="M305.515 433.166c4.822-4.415 12.072-5.988 18.29-3.968 6.218 2.019 11.16 7.552 12.469 13.957"/><path fill="none" stroke="#2e1f40" stroke-linecap="round" stroke-linejoin="round" stroke-width="27.202" d="M326.048 483.521s5.581 146.06 117.242 202.958l.011-.022s-.954 78.468-19.212 124.098M660.572 672.67s6.752 118.581 13.772 150.17M458.376 421.284s-73.701 21.871-152.86-39.487m492.448-11.663 44.752-27.824m-44.752 85.299 77.658 15.546m-96.085 41.929 13.162 44.131"/><path fill="none" stroke="#2e1f40" stroke-linecap="round" stroke-linejoin="round" stroke-width="27.202" d="M432.065 779.808c-13.909.032-28.085.109-41.313 4.754-13.228 4.646-25.595 14.696-29.975 28.962-4.975 16.203 1.464 34.515 12.366 46.869 10.902 12.355 25.603 19.851 40.161 26.479 42.37 19.292 87.146 33.681 133.057 36.345s93.163-6.955 132.422-32.815c16.907-11.137 33.102-26.751 37.265-47.67s-21.909-51.223-41.704-50.71"/><path fill="none" stroke="#2e1f40" stroke-linecap="round" stroke-linejoin="round" stroke-width="27.202" d="M404.503 781.243c-63.579 11.649-121.992 40.732-175.6 76.223-36.507 24.17-77.659 51.115-98.27 90.751m543.711-156.194c33.249 8.909 65.177 14.89 96.812 29.477 29.577 13.637 58.462 31.152 85.647 47.651 39.74 24.118 66.434 62.55 81.04 105.849M254.592 200.701c-28.517-20.325-70.301-19.585-98.08 1.739"/><path fill="none" stroke="#2e1f40" stroke-linecap="round" stroke-linejoin="round" stroke-width="27.202" d="M231.454 114.827c-13.888 43.807 7.535 72.335 14.708 87.613m-44.218 445.792c-2.885 13.154 3.588 27.82 15.251 34.552 7.289 4.207 15.93 5.624 24.346 5.625 13.05.002 20.921-7.896 23.432-12.011 7.071-11.592 9.29-26.664 3.464-38.93-14.277-30.059-59.922-19.197-66.494 10.764Z"/><g fill="none" stroke="#2e1f40" stroke-linecap="round" stroke-linejoin="round" stroke-width="27.202"><path d="M155.06 724.214c-15.273 29.89-20.365 51.753-30.547 77.629"/><path d="M178.601 778.302c-29.89-15.273-51.753-20.365-77.629-30.547"/></g><g fill="none" stroke="#2e1f40" stroke-linecap="round" stroke-linejoin="round" stroke-width="27.202"><path d="M116.245 541.997c-15.273 29.89-20.365 51.753-30.547 77.629"/><path d="M139.786 596.085c-29.89-15.273-51.753-20.365-77.629-30.547"/></g></svg>